<svg xmlns="http://www.w3.org/2000/svg" viewBox="0 69 124.09 55.91">     <defs>         <style>             .cls-1 {             fill: none;             }              .cls-2 {             fill: #343232;             }         </style>     </defs>     <g id="Calque_2" data-name="Calque 2">         <g id="Calque_2-2" data-name="Calque 2">             <rect class="cls-1" width="124.07" height="207.76"/>             <path class="cls-2" d="M2.16,85.05V78.61H0V75.55H2.16v-4.1H5.54v4.1H9.05v3.06H5.54v5.93c0,2.13.48,2.67,2.4,2.67.33,0,1.11-.06,1.11-.06v3s-.66.06-1.83.06C3.38,90.26,2.16,88.76,2.16,85.05Z"/>             <path class="cls-2" d="M11.14,90.23v-21h3.42v7.34a5.42,5.42,0,0,1,3.65-1.38c3.44,0,5.9,2.34,5.9,6.5v8.54H20.7V81.69c0-2-1-3.41-2.91-3.41-2.13,0-3.23,1.53-3.23,3.83v8.12Z"/>             <path class="cls-2" d="M33.48,87.48a4.38,4.38,0,0,0,3.78-2.07l2.3,2.16a7.28,7.28,0,0,1-6.08,3c-4.4,0-7.37-3.11-7.37-7.58,0-4.25,2.61-7.79,6.86-7.79,4.74,0,6.71,3.81,6.71,7.52,0,.51,0,1.2,0,1.2h-10A3.64,3.64,0,0,0,33.48,87.48ZM29.8,81.19h6.26A2.81,2.81,0,0,0,33,78.31,3.28,3.28,0,0,0,29.8,81.19Z"/>             <path class="cls-2" d="M48.36,79.57c0-2.73,2.28-4.38,5.36-4.38a7.32,7.32,0,0,1,5.55,2.46L57.08,80a4.27,4.27,0,0,0-3.45-1.86c-1.25,0-2,.63-2,1.38s.63,1.17,1.44,1.38l2.3.53c2.64.6,4.49,2,4.49,4.59s-2,4.55-5.81,4.55A7.43,7.43,0,0,1,48,87.72l2.16-2.22a5,5,0,0,0,4.19,2.13c1.74,0,2.25-.78,2.25-1.5s-.39-1-1.8-1.44l-1.94-.48C50.07,83.58,48.36,82.11,48.36,79.57Z"/>             <path class="cls-2" d="M69.45,90.56a6.35,6.35,0,0,1-4.11-1.41V96H61.93V75.55h3.35v1.32a5.26,5.26,0,0,1,4.17-1.68c4.22,0,7.16,3.3,7.16,7.7S73.67,90.56,69.45,90.56Zm-.24-3c2.6,0,3.92-2.19,3.92-4.65s-1.32-4.64-3.92-4.64-3.93,2.19-3.93,4.64S66.57,87.57,69.21,87.57Z"/>             <path class="cls-2" d="M80.7,69a2.13,2.13,0,0,1,2.16,2.13,2.16,2.16,0,1,1-4.31,0A2.12,2.12,0,0,1,80.7,69Zm1.68,6.59V90.23H79V75.55Z"/>             <path class="cls-2" d="M93.79,78.58c-3.44,0-4.52,2-4.52,5.9v5.75H85.86V75.55h3.35v1.59a5.17,5.17,0,0,1,4.46-1.8c.09,0,.3,0,.66,0v3.24A4.85,4.85,0,0,0,93.79,78.58Z"/>             <path class="cls-2" d="M97.8,69A2.13,2.13,0,0,1,100,71.09a2.16,2.16,0,1,1-4.31,0A2.12,2.12,0,0,1,97.8,69Zm1.68,6.59V90.23H96.07V75.55Z"/>             <path class="cls-2" d="M103.28,85.05V78.61h-2.15V75.55h2.15v-4.1h3.39v4.1h3.5v3.06h-3.5v5.93c0,2.13.48,2.67,2.39,2.67.33,0,1.11-.06,1.11-.06v3s-.66.06-1.82.06C104.51,90.26,103.28,88.76,103.28,85.05Z"/>             <path class="cls-2" d="M8.6,103.69a7.69,7.69,0,0,1,0,15.37,7.69,7.69,0,0,1,0-15.37ZM8.6,116c2.36,0,4.07-1.92,4.07-4.59S11,106.81,8.6,106.81s-4.11,1.92-4.11,4.58S6.2,116,8.6,116Z"/>             <path class="cls-2" d="M26.36,97.76v3.15s-.45,0-.78,0c-2.07,0-3.09.84-3.09,3v.18H26v3.06H22.49v11.62H19.14V107.11H17v-3.06h2.16v-.74c0-3.75,2.06-5.58,5.9-5.58C25.73,97.73,26.36,97.76,26.36,97.76Z"/>             <path class="cls-2" d="M33.72,108.07c0-2.73,2.28-4.38,5.36-4.38a7.28,7.28,0,0,1,5.54,2.46l-2.18,2.34A4.27,4.27,0,0,0,39,106.63c-1.26,0-2,.63-2,1.38s.62,1.17,1.43,1.38l2.31.53c2.64.6,4.49,2,4.49,4.59s-2,4.55-5.81,4.55a7.43,7.43,0,0,1-6.08-2.84L35.49,114a5,5,0,0,0,4.19,2.13c1.74,0,2.25-.78,2.25-1.5s-.39-1-1.8-1.44l-2-.48C35.43,112.08,33.72,110.61,33.72,108.07Z"/>             <path class="cls-2" d="M47.31,118.73v-21h3.42v7.34a5.47,5.47,0,0,1,3.65-1.38c3.45,0,5.9,2.34,5.9,6.51v8.53H56.87V110.2c0-2-1-3.42-2.91-3.42-2.12,0-3.23,1.53-3.23,3.83v8.12Z"/>             <path class="cls-2" d="M62.32,114.6c0-3.36,2.72-4.91,6.11-4.91a10.36,10.36,0,0,1,3,.51v-1c0-1.5-1.28-2.43-2.87-2.43A3.84,3.84,0,0,0,65,108.91l-2.3-2.16a6.59,6.59,0,0,1,5.81-3.06c3.65,0,6.26,1.8,6.26,5.55v9.49H71.45v-1.14a6.21,6.21,0,0,1-4.19,1.47C64.59,119.06,62.32,117.41,62.32,114.6ZM68,116.07a5.28,5.28,0,0,0,3.44-1.26v-1.68a8.22,8.22,0,0,0-3-.6c-1.56,0-2.61.63-2.61,1.83C65.73,115.29,66.45,116.07,68,116.07Z"/>             <path class="cls-2" d="M85.65,107.08c-3.45,0-4.53,2-4.53,5.9v5.75H77.71V104.05h3.35v1.59a5.18,5.18,0,0,1,4.47-1.8c.09,0,.3,0,.66,0v3.24A4.85,4.85,0,0,0,85.65,107.08Z"/>             <path class="cls-2" d="M89.75,97.46a2.13,2.13,0,0,1,2.16,2.13,2.16,2.16,0,0,1-4.32,0A2.13,2.13,0,0,1,89.75,97.46Zm1.68,6.59v14.68H88V104.05Z"/>             <path class="cls-2" d="M94.6,118.73V104.05H98v1.2a5.12,5.12,0,0,1,3.81-1.56c3.59,0,5.81,2.34,5.81,6.51v8.53h-3.42V110.2c0-2-1-3.42-2.9-3.42-2.13,0-3.24,1.53-3.24,3.83v8.12Z"/>             <path class="cls-2" d="M116.76,121.82c2.25,0,3.89-1.32,3.89-4.11V117a5.51,5.51,0,0,1-3.92,1.44c-4.13,0-7-3.11-7-7.34s2.94-7.37,7-7.37a5.16,5.16,0,0,1,4,1.56v-1.2h3.36v13.48c0,4.44-2.88,7.34-7.25,7.34a8,8,0,0,1-6.59-3.26l2.46-2.34A4.54,4.54,0,0,0,116.76,121.82Zm.18-6.53c2.28,0,3.77-1.77,3.77-4.23s-1.49-4.25-3.77-4.25-3.74,1.77-3.74,4.25S114.63,115.29,116.94,115.29Z"/>         </g>     </g> </svg>
