<?xml version="1.0" encoding="UTF-8"?>
<svg width="38px" height="25px" viewBox="0 0 38 25" version="1.1" xmlns="http://www.w3.org/2000/svg" xmlns:xlink="http://www.w3.org/1999/xlink">
    <!-- Generator: Sketch 55.2 (78181) - https://sketchapp.com -->
    <title>Fill 1</title>
    <desc>Created with Sketch.</desc>
    <g id="900-Panier" stroke="none" stroke-width="1" fill="none" fill-rule="evenodd">
        <g id="950_Checkout_Livraison-domicile---pas-d'adresse" transform="translate(-233.000000, -1594.000000)" fill="#343232">
            <g id="18+-copy" transform="translate(233.000000, 1594.000000)">
                <path d="M17.2246786,11.8720651 C18.3956997,11.8720651 18.9366,11.0818904 18.9366,10.2664379 L18.9366,8.99890139 C18.9366,7.93820547 18.2162886,7.32886435 17.2246786,7.32886435 C16.2582831,7.32886435 15.5372444,7.93820547 15.5372444,8.99890139 L15.5372444,10.2664379 C15.5372444,11.0818904 16.0774173,11.8720651 17.2246786,11.8720651 L17.2246786,11.8720651 Z M34.1601174,14.2231448 L30.6635404,14.2231448 L30.6635404,17.8500248 L27.8938208,17.8500248 L27.8938208,14.2231448 L24.3669378,14.2231448 L24.3669378,11.4420992 L27.8938208,11.4420992 L27.8938208,7.7539691 L30.6635404,7.7539691 L30.6635404,11.4420992 L34.1601174,11.4420992 L34.1601174,14.2231448 Z M21.8435448,16.5511341 C21.8435448,18.9933597 20.085316,20.6014175 17.2246786,20.6014175 C14.3868313,20.6014175 12.6324816,18.9933597 12.6324816,16.5511341 L12.6324816,15.3543269 C12.6324816,14.0909223 13.308425,13.0263375 14.2961559,12.5956425 C13.308425,12.1651905 12.6758797,11.1025501 12.6758797,9.81362474 L12.6758797,8.81855391 C12.6758797,6.37924497 14.3868313,4.77240246 17.2246786,4.77240246 C20.085316,4.77240246 21.7962676,6.37924497 21.7962676,8.81855391 L21.7962676,9.81362474 C21.7962676,11.1025501 21.166874,12.1651905 20.1767187,12.5956425 C21.166874,13.0263375 21.8435448,14.0909223 21.8435448,15.3543269 L21.8435448,16.5511341 Z M10.0855712,20.2171461 L7.11340798,20.2171461 L7.11340798,9.01251252 L5.3243883,9.01251252 L5.3243883,7.02820421 C6.68330622,7.02820421 7.25014834,6.11966128 7.25014834,5.14962521 L10.0855712,5.14962521 L10.0855712,20.2171461 Z M0,25 L38,25 L38,0 L0,0 L0,25 Z M17.2246786,13.3880047 C16.0774173,13.3880047 15.5132421,14.1560613 15.5132421,14.9705416 L15.5132421,16.3737033 C15.5132421,17.4341562 16.2582831,18.0454417 17.2246786,18.0454417 C18.2162886,18.0454417 18.9581778,17.4341562 18.9581778,16.3737033 L18.9581778,14.9705416 C18.9581778,14.1560613 18.3956997,13.3880047 17.2246786,13.3880047 L17.2246786,13.3880047 Z" id="Fill-1"></path>
            </g>
        </g>
    </g>
</svg>