<?xml version="1.0" encoding="UTF-8"?>
<svg width="120px" height="48px" viewBox="0 0 120 48" version="1.1" xmlns="http://www.w3.org/2000/svg" xmlns:xlink="http://www.w3.org/1999/xlink">
    <!-- Generator: Sketch 55.2 (78181) - https://sketchapp.com -->
    <title>logo_modération_EN</title>
    <desc>Created with Sketch.</desc>
    <defs>
        <polygon id="path-1" points="0.14140274 0.258082192 6.67597808 0.258082192 6.67597808 7.74078904 0.14140274 7.74078904"></polygon>
    </defs>
    <g id="900-Panier" stroke="none" stroke-width="1" fill="none" fill-rule="evenodd">
        <g id="950_Checkout_Livraison-domicile---pas-d'adresse" transform="translate(-96.000000, -1584.000000)">
            <g id="logo_modération_EN" transform="translate(96.000000, 1584.000000)">
                <g id="Group-45">
                    <path d="M14.1567123,2.06347397 C16.4314521,2.06347397 17.5466301,3.37196712 17.5466301,4.90139178 C17.5466301,6.43213151 16.4314521,7.74095342 14.1567123,7.74095342 C11.8819726,7.74095342 10.766137,6.43213151 10.766137,4.90139178 C10.766137,3.37196712 11.8819726,2.06347397 14.1567123,2.06347397 M14.1567123,2.91530959 C12.5401644,2.91530959 11.9480548,3.93909041 11.9480548,4.90139178 C11.9480548,5.86533699 12.5401644,6.88878904 14.1567123,6.88878904 C15.7732603,6.88878904 16.3653699,5.86533699 16.3653699,4.90139178 C16.3653699,3.93909041 15.7732603,2.91530959 14.1567123,2.91530959" id="Fill-2" fill="#343232"></path>
                    <g id="Group-6" transform="translate(18.082192, 0.000000)">
                        <mask id="mask-2" fill="white">
                            <use xlink:href="#path-1"></use>
                        </mask>
                        <g id="Clip-5"></g>
                        <path d="M5.56014247,6.87876164 L5.53811507,6.87876164 C5.10348493,7.43667945 4.17734795,7.74078904 3.31959452,7.74078904 C1.55740274,7.74078904 0.14140274,6.71635068 0.14140274,4.93213151 C0.14140274,3.14791233 1.55740274,2.12446027 3.31959452,2.12446027 C4.18951233,2.12446027 5.09263562,2.4072 5.53811507,2.98550137 L5.56014247,2.98550137 L5.56014247,0.258049315 L6.67597808,0.258049315 L6.67597808,7.55799452 L5.56014247,7.55799452 L5.56014247,6.87876164 Z M3.46490959,6.88862466 C4.98118356,6.88862466 5.62753973,5.93585753 5.62753973,4.93213151 C5.62753973,3.71602192 4.76847123,2.97530959 3.46490959,2.97530959 C2.17055342,2.97530959 1.32364932,3.71602192 1.32364932,4.93213151 C1.32364932,5.93585753 1.9598137,6.88862466 3.46490959,6.88862466 L3.46490959,6.88862466 Z" id="Fill-4" fill="#343232" mask="url(#mask-2)"></path>
                    </g>
                    <path d="M26.9085041,5.20632329 C26.9979288,6.30111781 28.0687233,6.88862466 29.0599562,6.88862466 C29.6961205,6.88862466 30.5663671,6.69596712 30.9444493,5.94572055 L32.1276822,5.94572055 C31.5697644,7.22330959 30.2652164,7.74078904 29.1171616,7.74078904 C26.8414356,7.74078904 25.7275726,6.43229589 25.7275726,4.9022137 C25.7275726,3.37114521 26.8414356,2.06330959 29.1171616,2.06330959 C30.6544767,2.06330959 32.2822027,2.87404932 32.2822027,5.07514521 L32.2822027,5.20632329 L26.9085041,5.20632329 Z M31.1009425,4.41465205 C30.9336,3.45202192 30.1087233,2.9141589 29.0599562,2.9141589 C28.0345315,2.9141589 27.1080658,3.4622137 26.9417096,4.41465205 L31.1009425,4.41465205 Z" id="Fill-7" fill="#343232"></path>
                    <path d="M33.2454575,2.24613699 L34.3593205,2.24613699 L34.3593205,3.21928767 L34.3823342,3.21928767 C34.9073753,2.37731507 35.6536767,2.06334247 36.3894575,2.06334247 C36.6672658,2.06334247 36.8129096,2.07353425 37.0256219,2.12449315 L37.0256219,3.21928767 C36.7455123,3.15780822 36.5347726,3.1170411 36.2336219,3.1170411 C35.1296219,3.1170411 34.3593205,3.70586301 34.3593205,4.86115068 L34.3593205,7.5580274 L33.2454575,7.5580274 L33.2454575,2.24613699 Z" id="Fill-9" fill="#343232"></path>
                    <path d="M37.5723945,3.9086137 C37.7167233,2.58105205 38.7211068,2.0645589 40.4701479,2.0645589 C41.6642301,2.0645589 43.159463,2.33743562 43.159463,3.5736 L43.159463,6.43354521 C43.159463,6.74653151 43.3152986,6.8885589 43.6601753,6.8885589 C43.7828055,6.8885589 43.9383123,6.86883288 44.0504219,6.84779178 L44.0504219,7.55825753 C43.7828055,7.59836712 43.4484493,7.61842192 43.1808329,7.61842192 C42.6239014,7.61842192 42.2566685,7.47705205 42.1780932,6.87869589 C41.7316274,7.42675068 40.6388055,7.73973699 39.6916274,7.73973699 C37.7505863,7.73973699 37.3156274,6.82773699 37.3156274,6.13929863 C37.3156274,5.16516164 37.951463,4.66872329 39.8241205,4.48592877 L41.095463,4.36428493 C41.7204493,4.30412055 42.1110247,4.20220274 42.1110247,3.72581918 C42.1110247,2.99595616 41.3292164,2.85392877 40.4264219,2.85392877 C39.4680658,2.85392877 38.6540384,3.08702466 38.6198466,3.9086137 L37.5723945,3.9086137 Z M42.1110247,4.78083288 C41.9433534,4.95277808 41.6422027,5.02379178 41.017874,5.09381918 L39.7577096,5.23749041 C38.8868055,5.33809315 38.4311342,5.55047671 38.4311342,6.10839452 C38.4311342,6.60483288 38.9772164,6.95003836 39.7909151,6.95003836 C41.0514082,6.95003836 42.1110247,6.34116164 42.1110247,5.45940822 L42.1110247,4.78083288 Z" id="Fill-11" fill="#343232"></path>
                    <path d="M45.0621041,0.613216438 L46.1779397,0.613216438 L46.1779397,2.24620274 L47.8497205,2.24620274 L47.8497205,3.0365589 L46.1779397,3.0365589 L46.1779397,6.31107945 C46.1779397,6.73650411 46.5129534,6.88872329 47.081063,6.88872329 C47.3378301,6.88872329 47.5926247,6.85781918 47.8497205,6.81738082 L47.8497205,7.66987397 C47.4716384,7.72970959 47.0580493,7.74088767 46.6013918,7.74088767 C45.5085699,7.74088767 45.0621041,7.25299726 45.0621041,6.48269589 L45.0621041,3.0365589 L43.8578301,3.0365589 L43.8578301,2.24620274 L45.0621041,2.24620274 L45.0621041,0.613216438 Z" id="Fill-13" fill="#343232"></path>
                    <path d="M48.5381918,1.37391781 L49.6540274,1.37391781 L49.6540274,0.259068493 L48.5381918,0.259068493 L48.5381918,1.37391781 Z M48.5381918,7.5580274 L49.6540274,7.5580274 L49.6540274,2.24613699 L48.5381918,2.24613699 L48.5381918,7.5580274 Z" id="Fill-15" fill="#343232"></path>
                    <path d="M54.0089753,2.06347397 C56.2827288,2.06347397 57.3985644,3.37196712 57.3985644,4.90139178 C57.3985644,6.43213151 56.2827288,7.74095342 54.0089753,7.74095342 C51.7332493,7.74095342 50.6184,6.43213151 50.6184,4.90139178 C50.6184,3.37196712 51.7332493,2.06347397 54.0089753,2.06347397 M54.0089753,2.91530959 C52.3914411,2.91530959 51.8003178,3.93909041 51.8003178,4.90139178 C51.8003178,5.86533699 52.3914411,6.88878904 54.0089753,6.88878904 C55.624537,6.88878904 56.2163178,5.86533699 56.2163178,4.90139178 C56.2163178,3.93909041 55.624537,2.91530959 54.0089753,2.91530959" id="Fill-17" fill="#343232"></path>
                    <path d="M58.3659616,2.24613699 L59.4817973,2.24613699 L59.4817973,3.0470137 L59.5038247,3.0470137 C60.0275507,2.30630137 60.9540164,2.06334247 61.7900712,2.06334247 C63.1945644,2.06334247 64.2420164,2.61008219 64.2420164,3.9389589 L64.2420164,7.5580274 L63.1281534,7.5580274 L63.1281534,4.14180822 C63.1281534,3.3609863 62.592263,2.91419178 61.4001534,2.91419178 C60.3849205,2.91419178 59.4817973,3.45205479 59.4817973,4.49589041 L59.4817973,7.5580274 L58.3659616,7.5580274 L58.3659616,2.24613699 Z" id="Fill-18" fill="#343232"></path>
                    <path d="M69.3264658,1.37391781 L70.4416438,1.37391781 L70.4416438,0.259068493 L69.3264658,0.259068493 L69.3264658,1.37391781 Z M69.3264658,7.5580274 L70.4416438,7.5580274 L70.4416438,2.24613699 L69.3264658,2.24613699 L69.3264658,7.5580274 Z" id="Fill-19" fill="#343232"></path>
                    <path d="M72.4653699,5.88568767 C72.4653699,6.3624 72.8888219,6.94990685 74.3051507,6.94990685 C75.7438356,6.94990685 76.0887123,6.49357808 76.0887123,6.11845479 C76.0887123,5.74300274 75.876,5.52075616 74.9850411,5.40897534 L73.145589,5.18508493 C72.309863,5.08415342 71.5622466,4.59823562 71.5622466,3.77631781 C71.5622466,2.70124932 72.5876712,2.0634411 74.2275616,2.0634411 C76.1449315,2.0634411 76.9816438,2.81401644 77.0822466,3.84766027 L75.9660822,3.84766027 C75.9332055,3.31078356 75.3752877,2.85379726 74.2167123,2.85379726 C73.5019726,2.85379726 72.6774247,3.03659178 72.6774247,3.66486575 C72.6774247,4.02026301 72.8556164,4.22278356 73.6469589,4.3243726 L75.2299726,4.51703014 C76.7028493,4.69982466 77.2706301,5.17522192 77.2706301,5.92579726 C77.2706301,7.16294795 76.1229041,7.73993425 74.3390137,7.73993425 C73.0006027,7.73993425 71.4728219,7.42661918 71.3505205,5.88568767 L72.4653699,5.88568767 Z" id="Fill-20" fill="#343232"></path>
                    <path d="M82.0092493,3.9086137 C82.1545644,2.58105205 83.1589479,2.0645589 84.907989,2.0645589 C86.1024,2.0645589 87.5963178,2.33743562 87.5963178,3.5736 L87.5963178,6.43354521 C87.5963178,6.74653151 87.7531397,6.8885589 88.0983452,6.8885589 C88.2209753,6.8885589 88.3758247,6.86883288 88.488263,6.84779178 L88.488263,7.55825753 C88.2209753,7.59836712 87.8853041,7.61842192 87.618674,7.61842192 C87.0604274,7.61842192 86.6935233,7.47705205 86.6152767,6.87869589 C86.1697973,7.42675068 85.075989,7.73973699 84.1284822,7.73973699 C82.1877699,7.73973699 81.7521534,6.82773699 81.7521534,6.13929863 C81.7521534,5.16516164 82.3883178,4.66872329 84.2622904,4.48592877 L85.5336329,4.36428493 C86.1573041,4.30412055 86.5491945,4.20220274 86.5491945,3.72581918 C86.5491945,2.99595616 85.7673863,2.85392877 84.8645918,2.85392877 C83.9059068,2.85392877 83.0912219,3.08702466 83.0576877,3.9086137 L82.0092493,3.9086137 Z M86.5491945,4.78083288 C86.380537,4.95277808 86.0797151,5.02379178 85.4550575,5.09381918 L84.1945644,5.23749041 C83.3256329,5.33809315 82.867989,5.55047671 82.867989,6.10839452 C82.867989,6.60483288 83.4137425,6.95003836 84.2290849,6.95003836 C85.4892493,6.95003836 86.5491945,6.34116164 86.5491945,5.45940822 L86.5491945,4.78083288 Z" id="Fill-21" fill="#343232"></path>
                    <polygon id="Fill-22" fill="#343232" points="89.1481644 7.5580274 90.2626849 7.5580274 90.2626849 0.259068493 89.1481644 0.259068493"></polygon>
                    <polygon id="Fill-23" fill="#343232" points="99.6220603 2.24613699 100.803978 2.24613699 98.4963616 7.5580274 97.2802521 7.5580274 95.820526 3.50235616 95.7978411 3.50235616 94.3368 7.5580274 93.155211 7.5580274 90.8916493 2.24613699 92.1301151 2.24613699 93.7456767 6.30115068 93.7677041 6.30115068 95.2188822 2.24613699 96.4441973 2.24613699 97.9262795 6.30115068 97.9492932 6.30115068"></polygon>
                    <path d="M101.173085,3.9086137 C101.317742,2.58105205 102.32114,2.0645589 104.071167,2.0645589 C105.264921,2.0645589 106.760482,2.33743562 106.760482,3.5736 L106.760482,6.43354521 C106.760482,6.74653151 106.915989,6.8885589 107.261195,6.8885589 C107.383825,6.8885589 107.539003,6.86883288 107.65177,6.84779178 L107.65177,7.55825753 C107.383825,7.59836712 107.049468,7.61842192 106.781523,7.61842192 C106.224263,7.61842192 105.856044,7.47705205 105.779112,6.87869589 C105.332318,7.42675068 104.239825,7.73973699 103.292647,7.73973699 C101.351934,7.73973699 100.916318,6.82773699 100.916318,6.13929863 C100.916318,5.16516164 101.552153,4.66872329 103.42514,4.48592877 L104.696153,4.36428493 C105.321468,4.30412055 105.712044,4.20220274 105.712044,3.72581918 C105.712044,2.99595616 104.929907,2.85392877 104.027441,2.85392877 C103.069085,2.85392877 102.255058,3.08702466 102.220866,3.9086137 L101.173085,3.9086137 Z M105.712044,4.78083288 C105.544044,4.95277808 105.243222,5.02379178 104.618893,5.09381918 L103.358729,5.23749041 C102.489797,5.33809315 102.031825,5.55047671 102.031825,6.10839452 C102.031825,6.60483288 102.577907,6.95003836 103.390948,6.95003836 C104.65177,6.95003836 105.712044,6.34116164 105.712044,5.45940822 L105.712044,4.78083288 Z" id="Fill-24" fill="#343232"></path>
                    <path d="M112.506247,2.24613699 L113.754575,2.24613699 L110.7,8.47035616 C110.142411,9.59605479 109.706795,9.78772603 108.670192,9.78772603 C108.392055,9.78772603 108.11326,9.768 107.821973,9.74761644 L107.821973,8.89610959 C108.023836,8.9059726 108.201699,8.93621918 108.470301,8.93621918 C109.160712,8.93621918 109.327397,8.80471233 109.684438,8.12547945 L109.941534,7.63923288 L107.242027,2.24613699 L108.524548,2.24613699 L110.531014,6.44252055 L112.506247,2.24613699 Z" id="Fill-25" fill="#343232"></path>
                    <path d="M114.910356,5.88568767 C114.910356,6.3624 115.334137,6.94990685 116.749808,6.94990685 C118.188822,6.94990685 118.534685,6.49357808 118.534685,6.11845479 C118.534685,5.74300274 118.322301,5.52075616 117.430027,5.40897534 L115.590904,5.18508493 C114.754192,5.08415342 114.007562,4.59823562 114.007562,3.77631781 C114.007562,2.70124932 115.032986,2.0634411 116.672219,2.0634411 C118.590247,2.0634411 119.425973,2.81401644 119.527562,3.84766027 L118.411397,3.84766027 C118.378192,3.31078356 117.820603,2.85379726 116.66137,2.85379726 C115.947945,2.85379726 115.12274,3.03659178 115.12274,3.66486575 C115.12274,4.02026301 115.301918,4.22278356 116.092932,4.3243726 L117.675945,4.51703014 C119.148164,4.69982466 119.71726,5.17522192 119.71726,5.92579726 C119.71726,7.16294795 118.567233,7.73993425 116.783671,7.73993425 C115.446575,7.73993425 113.918137,7.42661918 113.795507,5.88568767 L114.910356,5.88568767 Z" id="Fill-26" fill="#343232"></path>
                    <path d="M20.6722192,12.9228493 L21.7870685,12.9228493 L21.7870685,11.808 L20.6722192,11.808 L20.6722192,12.9228493 Z M20.6722192,19.1079452 L21.7870685,19.1079452 L21.7870685,13.795726 L20.6722192,13.795726 L20.6722192,19.1079452 Z" id="Fill-27" fill="#343232"></path>
                    <path d="M23.0291178,13.7956932 L24.1442959,13.7956932 L24.1442959,14.5965699 L24.1659945,14.5965699 C24.6900493,13.8561863 25.6152,13.6128986 26.4519123,13.6128986 C27.857063,13.6128986 28.9055014,14.1609534 28.9055014,15.4895014 L28.9055014,19.1079123 L27.7906521,19.1079123 L27.7906521,15.6916932 C27.7906521,14.9105425 27.2550904,14.4647342 26.0626521,14.4647342 C25.0470904,14.4647342 24.1442959,15.0019397 24.1442959,16.0464329 L24.1442959,19.1079123 L23.0291178,19.1079123 L23.0291178,13.7956932 Z" id="Fill-28" fill="#343232"></path>
                    <path d="M39.2189589,13.7956932 L40.3338082,13.7956932 L40.3338082,18.6614466 C40.3338082,20.5673096 39.330411,21.337611 36.9320548,21.337611 C35.6728767,21.337611 34.224,21.1561315 33.9902466,19.6858849 L35.1037808,19.6858849 C35.3043288,20.3756384 35.9848767,20.5482411 37.0444932,20.5482411 C38.6278356,20.5482411 39.2189589,19.8173918 39.2189589,18.9451726 L39.2189589,18.1748712 L39.1959452,18.1748712 C38.5716164,18.995474 37.6908493,19.1585425 36.9320548,19.1585425 C35.371726,19.1585425 33.7331507,18.3872548 33.7331507,16.4205699 C33.7331507,14.4440219 35.371726,13.6743781 36.9221918,13.6743781 C37.8812055,13.6743781 38.7613151,13.9682959 39.1959452,14.5765151 L39.2189589,14.5765151 L39.2189589,13.7956932 Z M37.0668493,14.5252274 C35.7067397,14.5252274 34.9150685,15.3362959 34.9150685,16.4317479 C34.9150685,17.5268712 35.7067397,18.3063781 37.0668493,18.3063781 C38.4164384,18.3063781 39.2189589,17.5268712 39.2189589,16.4317479 C39.2189589,15.3362959 38.4164384,14.5252274 37.0668493,14.5252274 L37.0668493,14.5252274 Z" id="Fill-29" fill="#343232"></path>
                    <path d="M44.6606137,13.6129973 C46.9363397,13.6129973 48.0505315,14.9214904 48.0505315,16.4512438 C48.0505315,17.9823123 46.9363397,19.2908055 44.6606137,19.2908055 C42.385874,19.2908055 41.2710247,17.9823123 41.2710247,16.4512438 C41.2710247,14.9214904 42.385874,13.6129973 44.6606137,13.6129973 M44.6606137,14.4648329 C43.0450521,14.4648329 42.4532712,15.4886137 42.4532712,16.4512438 C42.4532712,17.415189 43.0450521,18.4386411 44.6606137,18.4386411 C46.2771616,18.4386411 46.8692712,17.415189 46.8692712,16.4512438 C46.8692712,15.4886137 46.2771616,14.4648329 44.6606137,14.4648329" id="Fill-30" fill="#343232"></path>
                    <path d="M52.1184,13.6129973 C54.3924822,13.6129973 55.507989,14.9214904 55.507989,16.4512438 C55.507989,17.9823123 54.3924822,19.2908055 52.1184,19.2908055 C49.8423452,19.2908055 48.7284822,17.9823123 48.7284822,16.4512438 C48.7284822,14.9214904 49.8423452,13.6129973 52.1184,13.6129973 M52.1184,14.4648329 C50.5018521,14.4648329 49.9107288,15.4886137 49.9107288,16.4512438 C49.9107288,17.415189 50.5018521,18.4386411 52.1184,18.4386411 C53.7339616,18.4386411 54.3260712,17.415189 54.3260712,16.4512438 C54.3260712,15.4886137 53.7339616,14.4648329 52.1184,14.4648329" id="Fill-31" fill="#343232"></path>
                    <path d="M61.6051397,18.4289425 L61.582126,18.4289425 C61.1474959,18.9865315 60.2213589,19.2906411 59.3632767,19.2906411 C57.6014137,19.2906411 56.1854137,18.2662027 56.1854137,16.4819836 C56.1854137,14.6977644 57.6014137,13.6743123 59.3632767,13.6743123 C60.232537,13.6743123 61.1356603,13.9580384 61.582126,14.5350247 L61.6051397,14.5350247 L61.6051397,11.8079014 L62.7193315,11.8079014 L62.7193315,19.1078466 L61.6051397,19.1078466 L61.6051397,18.4289425 Z M59.5079342,18.4384767 C61.0248658,18.4384767 61.6712219,17.4857096 61.6712219,16.4819836 C61.6712219,15.265874 60.8124822,14.5261479 59.5079342,14.5261479 C58.2152219,14.5261479 57.3663452,15.265874 57.3663452,16.4819836 C57.3663452,17.4857096 58.0025096,18.4384767 59.5079342,18.4384767 L59.5079342,18.4384767 Z" id="Fill-32" fill="#343232"></path>
                    <path d="M68.294137,12.1634301 L69.4099726,12.1634301 L69.4099726,13.7967452 L71.0817534,13.7967452 L71.0817534,14.5864438 L69.4099726,14.5864438 L69.4099726,17.8619507 C69.4099726,18.286389 69.744,18.4386082 70.3130959,18.4386082 C70.569863,18.4386082 70.8246575,18.4077041 71.0817534,18.3672658 L71.0817534,19.2194301 C70.7023562,19.2805808 70.2897534,19.2907726 69.8324384,19.2907726 C68.740274,19.2907726 68.294137,18.8028822 68.294137,18.0329096 L68.294137,14.5864438 L67.089863,14.5864438 L67.089863,13.7967452 L68.294137,13.7967452 L68.294137,12.1634301 Z" id="Fill-33" fill="#343232"></path>
                    <path d="M71.8322301,15.4584658 C71.9768877,14.1309041 72.9809425,13.6140822 74.7299836,13.6140822 C75.9240658,13.6140822 77.4192986,13.8869589 77.4192986,15.1231233 L77.4192986,17.9833973 C77.4192986,18.2960548 77.5751342,18.438411 77.9203397,18.438411 C78.0429699,18.438411 78.1981479,18.4186849 78.3102575,18.3973151 L78.3102575,19.1081096 C78.0429699,19.1482192 77.7086137,19.168274 77.4406685,19.168274 C76.8834082,19.168274 76.5161753,19.0265753 76.4379288,18.4288767 C75.991463,18.9766027 74.8986411,19.289589 73.9517918,19.289589 C72.0107507,19.289589 71.575463,18.377589 71.575463,17.6891507 C71.575463,16.7146849 72.2112986,16.2189041 74.0842849,16.0354521 L75.3552986,15.914137 C75.9806137,15.8536438 76.3708603,15.7527123 76.3708603,15.2766575 C76.3708603,14.5454795 75.5890521,14.4037808 74.6865863,14.4037808 C73.7279014,14.4037808 72.9142027,14.6375342 72.880011,15.4584658 L71.8322301,15.4584658 Z M76.3708603,16.3303562 C76.203189,16.5023014 75.9023671,16.5736438 75.2777096,16.6436712 L74.017874,16.7870137 C73.1489425,16.8876164 72.6909699,17.1003288 72.6909699,17.6582466 C72.6909699,18.1550137 73.2370521,18.4998904 74.0510795,18.4998904 C75.3109151,18.4998904 76.3708603,17.892 76.3708603,17.0092603 L76.3708603,16.3303562 Z" id="Fill-34" fill="#343232"></path>
                    <path d="M79.788789,17.4352438 C79.788789,17.9119562 80.2122411,18.4997918 81.6279123,18.4997918 C83.066926,18.4997918 83.4121315,18.0437918 83.4121315,17.6683397 C83.4121315,17.293874 83.2004055,17.0703123 82.3081315,16.9588603 L80.4690082,16.7359562 C79.6332822,16.6337096 78.8856658,16.1477918 78.8856658,15.327189 C78.8856658,14.2511342 79.9114192,13.6139836 81.5503233,13.6139836 C83.4683507,13.6139836 84.305063,14.3635726 84.4056658,15.3972164 L83.2895014,15.3972164 C83.2566247,14.8606685 82.6987068,14.4036822 81.539474,14.4036822 C80.8247342,14.4036822 80.0008438,14.5864767 80.0008438,15.2144219 C80.0008438,15.5698192 80.1790356,15.7723397 80.9697205,15.8742575 L82.553063,16.0669151 C84.0265973,16.2493808 84.5943781,16.7251068 84.5943781,17.4756822 C84.5943781,18.7128329 83.4459945,19.2898192 81.6617753,19.2898192 C80.3236932,19.2898192 78.7962411,18.9765041 78.673611,17.4352438 L79.788789,17.4352438 Z" id="Fill-35" fill="#343232"></path>
                    <path d="M86.0382575,12.1634301 L87.1527781,12.1634301 L87.1527781,13.7967452 L88.8265315,13.7967452 L88.8265315,14.5864438 L87.1527781,14.5864438 L87.1527781,17.8619507 C87.1527781,18.286389 87.4881205,18.4386082 88.0562301,18.4386082 C88.3129973,18.4386082 88.5697644,18.4077041 88.8265315,18.3672658 L88.8265315,19.2194301 C88.447463,19.2805808 88.033874,19.2907726 87.5765589,19.2907726 C86.4847233,19.2907726 86.0382575,18.8028822 86.0382575,18.0329096 L86.0382575,14.5864438 L84.8339836,14.5864438 L84.8339836,13.7967452 L86.0382575,13.7967452 L86.0382575,12.1634301 Z" id="Fill-36" fill="#343232"></path>
                    <path d="M90.2586082,16.7562082 C90.3477041,17.8510027 91.4188274,18.4385096 92.4100603,18.4385096 C93.0462247,18.4385096 93.9151562,18.2461808 94.2945534,17.4956055 L95.4754849,17.4956055 C94.9195397,18.772537 93.6140055,19.290674 92.4675945,19.290674 C90.1915397,19.290674 89.0766904,17.9831671 89.0766904,16.4520986 C89.0766904,14.9207014 90.1915397,13.6128658 92.4675945,13.6128658 C94.0049096,13.6128658 95.6323068,14.4239342 95.6323068,16.6250301 L95.6323068,16.7562082 L90.2586082,16.7562082 Z M94.4510466,15.9642082 C94.2833753,15.0019068 93.4584986,14.4637151 92.4100603,14.4637151 C91.3846356,14.4637151 90.4584986,15.0117699 90.2921425,15.9642082 L94.4510466,15.9642082 Z" id="Fill-37" fill="#343232"></path>
                    <polygon id="Fill-38" fill="#343232" points="96.6575342 19.1079452 98.0406575 19.1079452 98.0406575 17.9309589 96.6575342 17.9309589"></polygon>
                    <path d="M13.4121863,36.1431781 L16.4052822,36.1431781 L18.3058849,34.4556164 L14.5428164,34.4556164 L13.4121863,36.1431781 Z M10.617337,45.1421918 L20.0447342,45.1421918 L20.0447342,43.1031781 L14.1193644,43.1031781 L14.1193644,41.978137 L19.6225973,41.978137 L19.6225973,39.9407671 L14.1193644,39.9407671 L14.1193644,38.814411 L20.0447342,38.814411 L20.0447342,36.7767123 L10.617337,36.7767123 L10.617337,45.1421918 Z M27.2739945,45.1421918 L30.2792548,45.1421918 L30.2792548,36.4834521 L27.1743781,36.4834521 L27.1743781,39.4597808 L27.1493918,39.4597808 C26.6144877,38.849589 25.7215562,38.5569863 24.4541589,38.5569863 C22.4421041,38.5569863 20.5918027,39.6014795 20.5918027,41.978137 C20.5918027,44.3574247 22.4421041,45.400274 24.4541589,45.400274 C25.8336658,45.400274 26.688789,45.0718356 27.2486795,44.4632877 L27.2739945,44.4632877 L27.2739945,45.1421918 Z M27.1743781,41.978137 C27.1743781,42.8924384 26.664789,43.4312877 25.4726795,43.4312877 C24.2684055,43.4312877 23.7706521,42.8220822 23.7706521,41.978137 C23.7706521,41.1585205 24.3427068,40.5256438 25.4605151,40.5256438 C26.664789,40.5256438 27.1743781,41.0766575 27.1743781,41.978137 L27.1743781,41.978137 Z M40.4881315,38.7325479 L37.3835836,38.7325479 L37.3835836,41.7565479 C37.3835836,42.7158904 36.9121315,43.2905753 35.9425973,43.2905753 C35.2101041,43.2905753 34.7504877,42.9397808 34.7504877,42.1310137 L34.7504877,38.7325479 L31.6449534,38.7325479 L31.6449534,42.8924384 C31.6449534,44.6736986 32.937337,45.400274 34.6512,45.400274 C36.1415014,45.400274 37.1347068,44.8380822 37.4578849,44.4277808 L37.4838575,44.4277808 L37.4838575,45.1421918 L40.4881315,45.1421918 L40.4881315,38.7325479 Z M51.5685699,41.3110685 C51.2335562,39.1786849 49.4933918,38.4744658 46.5752548,38.4744658 C43.7172822,38.4744658 41.4826521,39.2963836 41.4826521,41.9199452 C41.4826521,44.5803288 43.7172822,45.400274 46.5752548,45.400274 C48.7105973,45.400274 51.2453918,45.0961644 51.5685699,42.4361096 L48.3134466,42.4361096 C48.1027068,43.2669041 47.4563507,43.5029589 46.5874192,43.5029589 C45.3571726,43.5029589 44.7371178,42.8694247 44.7371178,41.8847671 C44.7371178,41.0289863 45.2204055,40.3033973 46.6114192,40.3033973 C47.0098849,40.3033973 47.4441863,40.3619178 47.7292274,40.5036164 C48.0773918,40.6670137 48.2772822,40.9129315 48.3134466,41.3110685 L51.5685699,41.3110685 Z" id="Fill-39" fill="#343232"></path>
                    <path d="M73.1456877,42.4507726 C73.1456877,43.5057863 71.9627836,44.0094575 70.8988932,44.0094575 C70.1105096,44.0094575 69.5723178,43.6931836 69.5723178,43.1303342 C69.5723178,42.5684712 69.9428384,42.3689096 70.684537,42.310389 L71.9026192,42.2061699 C72.3217973,42.1700055 72.7514959,42.1239781 73.1456877,41.9362521 L73.1456877,42.4507726 Z M69.7630027,40.6356493 C70.0618521,39.7680329 70.5277151,39.6976767 71.4249205,39.6976767 C72.6443178,39.6976767 73.0743452,39.9445808 73.0743452,40.4482521 C73.0743452,40.9519233 72.858674,41.0574575 72.2136329,41.1041425 L69.978674,41.2557041 C68.6994411,41.3382247 67.3248658,41.6660055 67.3248658,43.1895123 C67.3248658,44.6544986 68.4965918,45.228526 70.1703452,45.228526 C71.1135781,45.228526 72.4526466,45.0299507 73.170674,44.3254027 C73.1808658,44.5483068 73.2410301,44.7721973 73.3133589,44.9947726 L75.4161534,44.9947726 C75.274126,44.6775123 75.1777973,44.2793753 75.1777973,43.7283616 L75.1777973,40.6119781 C75.1777973,39.4399233 74.5317699,38.4795945 71.5212493,38.4795945 C69.7988384,38.4795945 67.9830575,38.7021699 67.7322082,40.6356493 L69.7630027,40.6356493 Z M76.3475507,44.9947726 L78.451989,44.9947726 L78.451989,36.4875945 L76.3475507,36.4875945 L76.3475507,44.9947726 Z M87.523989,41.0341151 C87.128811,38.9602521 85.2295233,38.4795945 83.6037699,38.4795945 C81.0699616,38.4795945 79.3741808,39.486937 79.3741808,41.8540603 C79.3741808,44.2211836 81.0094685,45.228526 83.4252493,45.228526 C85.516537,45.228526 87.1406466,44.7238685 87.523989,42.4991014 L85.3488658,42.4991014 C85.2407014,43.2838685 84.5361534,43.7757041 83.6037699,43.7757041 C82.3002082,43.7757041 81.5476603,43.0843068 81.5476603,41.8540603 C81.5476603,40.6238137 82.3002082,39.9324164 83.6037699,39.9324164 C84.4526466,39.9324164 85.0976877,40.2023342 85.3488658,41.0341151 L87.523989,41.0341151 Z M88.0138521,41.8540603 C88.0138521,44.2211836 89.7119342,45.228526 92.2447562,45.228526 C94.7782356,45.228526 96.4773041,44.2211836 96.4773041,41.8540603 C96.4773041,39.486937 94.7782356,38.4795945 92.2447562,38.4795945 C89.7119342,38.4795945 88.0138521,39.486937 88.0138521,41.8540603 L88.0138521,41.8540603 Z M90.1896329,41.8540603 C90.1896329,40.6238137 90.9421808,39.9324164 92.2447562,39.9324164 C93.5470027,39.9324164 94.3008658,40.6238137 94.3008658,41.8540603 C94.3008658,43.0843068 93.5470027,43.7757041 92.2447562,43.7757041 C90.9421808,43.7757041 90.1896329,43.0843068 90.1896329,41.8540603 L90.1896329,41.8540603 Z M97.0976877,41.8540603 C97.0976877,44.2211836 98.7951123,45.228526 101.328921,45.228526 C103.862729,45.228526 105.559167,44.2211836 105.559167,41.8540603 C105.559167,39.486937 103.862729,38.4795945 101.328921,38.4795945 C98.7951123,38.4795945 97.0976877,39.486937 97.0976877,41.8540603 L97.0976877,41.8540603 Z M99.272811,41.8540603 C99.272811,40.6238137 100.025359,39.9324164 101.328921,39.9324164 C102.632153,39.9324164 103.38503,40.6238137 103.38503,41.8540603 C103.38503,43.0843068 102.632153,43.7757041 101.328921,43.7757041 C100.025359,43.7757041 99.272811,43.0843068 99.272811,41.8540603 L99.272811,41.8540603 Z M106.479386,44.9947726 L108.582838,44.9947726 L108.582838,36.4875945 L106.479386,36.4875945 L106.479386,44.9947726 Z" id="Fill-40" fill="#343232"></path>
                    <path d="M58.068789,44.6407233 C57.8501589,44.6407233 57.6413918,44.5243397 57.5279671,44.3287233 L48.9997479,29.5562301 C48.8590356,29.3129425 48.8991452,29.0035726 49.0990356,28.804011 C49.2193644,28.6826959 49.3788164,28.6202301 49.5395836,28.6202301 C49.6477479,28.6202301 49.7539397,28.6475178 49.8525699,28.7047233 L58.3798027,33.6286685 C58.5744329,33.7391342 58.6921315,33.9459288 58.6921315,34.1685041 L58.6921315,44.0163945 C58.6921315,44.2984767 58.5034192,44.5463671 58.2295562,44.6196822 C58.1762959,44.6338192 58.1223781,44.6407233 58.068789,44.6407233" id="Fill-41" fill="#343232"></path>
                    <path d="M61.0089205,44.6407233 C60.955989,44.6407233 60.9007562,44.6338192 60.848811,44.6196822 C60.5746192,44.5463671 60.3849205,44.2984767 60.3849205,44.0163945 L60.3849205,34.1685041 C60.3849205,33.9459288 60.5032767,33.7391342 60.6979068,33.6286685 L69.2251397,28.7047233 C69.3234411,28.6475178 69.4306192,28.6202301 69.538126,28.6202301 C69.6988932,28.6202301 69.8583452,28.6826959 69.9776877,28.8030247 C70.1785644,29.0035726 70.218674,29.3129425 70.0779616,29.5562301 L61.5500712,44.3287233 C61.4356603,44.5243397 61.2278795,44.6407233 61.0089205,44.6407233" id="Fill-42" fill="#343232"></path>
                    <path d="M59.538937,32.2387726 C59.4314301,32.2387726 59.322937,32.2108274 59.2266082,32.1555945 L50.698389,27.230663 C50.4534575,27.0902795 50.3341151,26.8022795 50.4074301,26.5294027 C50.4807452,26.256526 50.7276493,26.0668274 51.0107178,26.0668274 L68.0674849,26.0668274 C68.3492384,26.0668274 68.5971288,26.256526 68.6691288,26.5294027 C68.7424438,26.8022795 68.6234301,27.0902795 68.3784986,27.230663 L59.850937,32.1555945 C59.7536219,32.2108274 59.6474301,32.2387726 59.538937,32.2387726" id="Fill-43" fill="#343232"></path>
                    <polygon id="Fill-44" fill="#343232" points="10.6172055 48 108.583562 48 108.583562 47.5334795 10.6172055 47.5334795"></polygon>
                    <polygon id="Fill-1" fill="#343232" points="8.30094771 0 4.99284107 5.80476948 1.72155178 0 0 0 0 7 1.22451762 7 1.22451762 1.31414944 1.24872162 1.31414944 4.45012613 7 5.53623781 7 8.75127838 1.19650238 8.77445967 1.19650238 8.77445967 7 10 7 10 0"></polygon>
                </g>
            </g>
        </g>
    </g>
</svg>
